<svg width="492" height="455" viewBox="0 0 492 455" fill="none" xmlns="http://www.w3.org/2000/svg">
<g filter="url(#filter0_f_2002_4115)">
<path d="M323.903 222.156C323.903 286.24 387.987 338.191 323.903 338.191C259.82 338.191 117.223 329.626 117.223 265.543C117.223 201.459 110.251 117 174.334 117C510.654 128.657 323.903 158.072 323.903 222.156Z" fill="#31A9E1"/>
</g>
<g filter="url(#filter1_dd_2002_4115)">
<rect width="129.291" height="129.291" transform="translate(168 152)" fill="#2483D6"/>
<path d="M180.939 222.404C179.269 222.404 177.788 222.121 176.495 221.556C175.229 220.99 174.232 220.209 173.505 219.212C172.805 218.189 172.455 217.017 172.455 215.697C172.455 213.704 173.276 212.115 174.919 210.929C176.589 209.744 178.838 209.152 181.667 209.152C184.118 209.152 186.084 209.677 187.565 210.727V209.758C187.565 208.492 187.175 207.522 186.394 206.849C185.613 206.175 184.481 205.839 183 205.839C180.791 205.839 178.892 206.31 177.303 207.253C176.63 207.63 176.05 207.818 175.566 207.818C174.973 207.818 174.448 207.549 173.99 207.01C173.694 206.633 173.545 206.243 173.545 205.839C173.545 205.165 173.896 204.573 174.596 204.061C175.566 203.361 176.791 202.808 178.273 202.404C179.754 202 181.316 201.798 182.959 201.798C186.084 201.798 188.535 202.512 190.313 203.94C192.118 205.34 193.02 207.28 193.02 209.758V220.141C193.02 220.842 192.777 221.394 192.293 221.798C191.835 222.202 191.202 222.404 190.394 222.404C189.559 222.404 188.912 222.215 188.454 221.838C187.996 221.461 187.767 220.923 187.767 220.222V219.778C186.232 221.529 183.956 222.404 180.939 222.404ZM182.192 218.687C183.889 218.687 185.209 218.431 186.151 217.919C187.121 217.381 187.606 216.64 187.606 215.697C187.606 214.808 187.121 214.094 186.151 213.556C185.182 213.017 183.889 212.748 182.273 212.748C180.818 212.748 179.687 213.003 178.879 213.515C178.098 214.027 177.707 214.754 177.707 215.697C177.707 216.64 178.098 217.381 178.879 217.919C179.66 218.431 180.764 218.687 182.192 218.687ZM203.926 222.404C201.152 222.404 198.984 221.609 197.421 220.02C195.886 218.404 195.118 216.168 195.118 213.313V204.222C195.118 203.468 195.361 202.876 195.846 202.445C196.33 202.014 196.977 201.798 197.785 201.798C198.62 201.798 199.266 202.014 199.724 202.445C200.182 202.876 200.411 203.468 200.411 204.222V213.313C200.411 214.849 200.815 216.047 201.623 216.909C202.458 217.771 203.617 218.202 205.098 218.202C207.01 218.202 208.492 217.596 209.542 216.384C210.62 215.172 211.159 213.502 211.159 211.374V204.222C211.159 203.468 211.401 202.876 211.886 202.445C212.371 202.014 213.017 201.798 213.825 201.798C214.66 201.798 215.307 202.014 215.765 202.445C216.222 202.876 216.451 203.468 216.451 204.222V219.98C216.451 220.761 216.222 221.367 215.765 221.798C215.334 222.202 214.714 222.404 213.906 222.404C213.098 222.404 212.465 222.189 212.007 221.758C211.549 221.327 211.32 220.734 211.32 219.98V218.808C210.324 220.047 209.219 220.963 208.007 221.556C206.822 222.121 205.462 222.404 203.926 222.404ZM235.45 216.788C235.881 217.138 236.097 217.569 236.097 218.081C236.097 218.593 235.908 219.118 235.531 219.657C234.939 220.519 234.104 221.192 233.026 221.677C231.949 222.162 230.737 222.404 229.39 222.404C227.235 222.404 225.538 221.825 224.299 220.667C223.087 219.482 222.481 217.865 222.481 215.818V206.364H220.824C220.016 206.364 219.37 206.175 218.885 205.798C218.4 205.421 218.158 204.923 218.158 204.303C218.158 203.657 218.387 203.145 218.845 202.768C219.329 202.391 219.989 202.202 220.824 202.202H222.481V196.101C222.481 195.347 222.723 194.755 223.208 194.324C223.693 193.893 224.339 193.677 225.148 193.677C225.983 193.677 226.629 193.893 227.087 194.324C227.545 194.755 227.774 195.347 227.774 196.101V202.202H231.653C232.488 202.202 233.134 202.391 233.592 202.768C234.077 203.145 234.319 203.657 234.319 204.303C234.319 204.923 234.077 205.421 233.592 205.798C233.134 206.175 232.488 206.364 231.653 206.364H227.774V216.263C227.774 216.855 227.949 217.327 228.299 217.677C228.676 218.027 229.174 218.202 229.794 218.202C230.279 218.202 230.696 218.135 231.046 218C231.424 217.838 231.801 217.583 232.178 217.232C232.878 216.559 233.525 216.222 234.117 216.222C234.548 216.222 234.993 216.411 235.45 216.788ZM248.408 222.404C246.065 222.404 243.977 221.987 242.145 221.152C240.341 220.29 238.927 219.077 237.903 217.515C236.88 215.953 236.368 214.148 236.368 212.101C236.368 210.054 236.88 208.249 237.903 206.687C238.927 205.125 240.341 203.926 242.145 203.091C243.977 202.229 246.065 201.798 248.408 201.798C250.751 201.798 252.825 202.229 254.63 203.091C256.462 203.926 257.889 205.125 258.913 206.687C259.936 208.249 260.448 210.054 260.448 212.101C260.448 214.148 259.936 215.953 258.913 217.515C257.889 219.077 256.462 220.29 254.63 221.152C252.825 221.987 250.751 222.404 248.408 222.404ZM248.408 218.202C250.482 218.202 252.112 217.663 253.297 216.586C254.509 215.509 255.115 214.014 255.115 212.101C255.115 210.189 254.509 208.694 253.297 207.616C252.112 206.539 250.482 206 248.408 206C246.334 206 244.691 206.539 243.479 207.616C242.294 208.694 241.701 210.189 241.701 212.101C241.701 214.014 242.294 215.509 243.479 216.586C244.691 217.663 246.334 218.202 248.408 218.202Z" fill="white"/>
<path d="M217.293 255.404C216.458 255.404 215.811 255.189 215.353 254.758C214.896 254.327 214.667 253.734 214.667 252.98V226.758C214.667 226.004 214.896 225.411 215.353 224.98C215.811 224.549 216.458 224.334 217.293 224.334C218.101 224.334 218.747 224.549 219.232 224.98C219.717 225.411 219.959 226.004 219.959 226.758V252.98C219.959 253.734 219.717 254.327 219.232 254.758C218.747 255.189 218.101 255.404 217.293 255.404ZM234.896 255.404C232.553 255.404 230.466 254.987 228.634 254.152C226.829 253.29 225.415 252.077 224.392 250.515C223.368 248.953 222.856 247.148 222.856 245.101C222.856 243.054 223.368 241.249 224.392 239.687C225.415 238.125 226.829 236.926 228.634 236.091C230.466 235.229 232.553 234.798 234.896 234.798C237.24 234.798 239.314 235.229 241.119 236.091C242.95 236.926 244.378 238.125 245.401 239.687C246.425 241.249 246.937 243.054 246.937 245.101C246.937 247.148 246.425 248.953 245.401 250.515C244.378 252.077 242.95 253.29 241.119 254.152C239.314 254.987 237.24 255.404 234.896 255.404ZM234.896 251.202C236.97 251.202 238.6 250.663 239.785 249.586C240.997 248.509 241.603 247.014 241.603 245.101C241.603 243.189 240.997 241.694 239.785 240.616C238.6 239.539 236.97 239 234.896 239C232.822 239 231.179 239.539 229.967 240.616C228.782 241.694 228.189 243.189 228.189 245.101C228.189 247.014 228.782 248.509 229.967 249.586C231.179 250.663 232.822 251.202 234.896 251.202ZM257.117 255.404C255.447 255.404 253.966 255.121 252.673 254.556C251.407 253.99 250.41 253.209 249.683 252.212C248.983 251.189 248.632 250.017 248.632 248.697C248.632 246.704 249.454 245.115 251.097 243.929C252.767 242.744 255.016 242.152 257.844 242.152C260.295 242.152 262.262 242.677 263.743 243.727V242.758C263.743 241.492 263.353 240.522 262.572 239.849C261.79 239.175 260.659 238.839 259.178 238.839C256.969 238.839 255.07 239.31 253.481 240.253C252.807 240.63 252.228 240.818 251.743 240.818C251.151 240.818 250.626 240.549 250.168 240.01C249.871 239.633 249.723 239.243 249.723 238.839C249.723 238.165 250.073 237.573 250.774 237.061C251.743 236.361 252.969 235.808 254.45 235.404C255.932 235 257.494 234.798 259.137 234.798C262.262 234.798 264.713 235.512 266.491 236.94C268.295 238.34 269.198 240.28 269.198 242.758V253.141C269.198 253.842 268.955 254.394 268.47 254.798C268.013 255.202 267.38 255.404 266.571 255.404C265.736 255.404 265.09 255.215 264.632 254.838C264.174 254.461 263.945 253.923 263.945 253.222V252.778C262.41 254.529 260.134 255.404 257.117 255.404ZM258.37 251.687C260.067 251.687 261.386 251.431 262.329 250.919C263.299 250.381 263.784 249.64 263.784 248.697C263.784 247.808 263.299 247.094 262.329 246.556C261.359 246.017 260.067 245.748 258.45 245.748C256.996 245.748 255.865 246.003 255.057 246.515C254.275 247.027 253.885 247.754 253.885 248.697C253.885 249.64 254.275 250.381 255.057 250.919C255.838 251.431 256.942 251.687 258.37 251.687ZM274.124 255.404C273.289 255.404 272.643 255.189 272.185 254.758C271.727 254.327 271.498 253.734 271.498 252.98V237.222C271.498 236.441 271.714 235.849 272.145 235.445C272.603 235.014 273.236 234.798 274.044 234.798C274.852 234.798 275.485 235.014 275.943 235.445C276.4 235.876 276.629 236.468 276.629 237.222V238.394C278.542 235.997 281.155 234.798 284.468 234.798C287.054 234.798 289.087 235.62 290.569 237.263C292.077 238.879 292.831 241.088 292.831 243.889V252.98C292.831 253.734 292.589 254.327 292.104 254.758C291.619 255.189 290.973 255.404 290.165 255.404C289.33 255.404 288.683 255.189 288.225 254.758C287.767 254.327 287.538 253.734 287.538 252.98V243.889C287.538 242.354 287.161 241.155 286.407 240.293C285.653 239.431 284.602 239 283.256 239C281.208 239 279.619 239.606 278.488 240.818C277.357 242.004 276.791 243.674 276.791 245.828V252.98C276.791 253.734 276.549 254.327 276.064 254.758C275.579 255.189 274.932 255.404 274.124 255.404Z" fill="white"/>
<path fill-rule="evenodd" clip-rule="evenodd" d="M257.909 210.738C257.909 210.18 258.361 209.728 258.919 209.728H263.97C270.106 209.728 275.081 214.702 275.081 220.839V234.561L279.784 229.858C280.179 229.463 280.818 229.463 281.213 229.858C281.607 230.252 281.607 230.892 281.213 231.286L274.785 237.714C274.39 238.109 273.751 238.109 273.356 237.714L266.928 231.286C266.534 230.892 266.534 230.252 266.928 229.858C267.323 229.463 267.962 229.463 268.357 229.858L273.06 234.561V220.839C273.06 215.818 268.99 211.748 263.97 211.748H258.919C258.361 211.748 257.909 211.296 257.909 210.738Z" fill="white" stroke="white" stroke-width="2.02017" stroke-linejoin="round"/>
</g>
<g filter="url(#filter2_d_2002_4115)">
<ellipse cx="264.831" cy="140.611" rx="3.55756" ry="3.55755" fill="url(#paint0_radial_2002_4115)"/>
</g>
<g filter="url(#filter3_d_2002_4115)">
<ellipse cx="275.503" cy="119.265" rx="3.55756" ry="3.55755" fill="url(#paint1_radial_2002_4115)"/>
</g>
<g filter="url(#filter4_d_2002_4115)">
<ellipse cx="305.735" cy="74.7973" rx="5.33634" ry="5.33632" fill="url(#paint2_radial_2002_4115)"/>
</g>
<g filter="url(#filter5_d_2002_4115)">
<ellipse cx="195.454" cy="46.3363" rx="5.33634" ry="5.33632" fill="url(#paint3_radial_2002_4115)"/>
</g>
<g filter="url(#filter6_d_2002_4115)">
<ellipse cx="190.115" cy="112.151" rx="7.11512" ry="7.11509" fill="url(#paint4_radial_2002_4115)"/>
</g>
<g filter="url(#filter7_d_2002_4115)">
<ellipse cx="222.136" cy="140.611" rx="3.55756" ry="3.55755" fill="url(#paint5_radial_2002_4115)"/>
</g>
<g filter="url(#filter8_d_2002_4115)">
<ellipse cx="222.136" cy="108.593" rx="3.55756" ry="3.55755" fill="url(#paint6_radial_2002_4115)"/>
</g>
<defs>
<filter id="filter0_f_2002_4115" x="0.966003" y="0.966003" width="490.678" height="453.259" filterUnits="userSpaceOnUse" color-interpolation-filters="sRGB">
<feFlood flood-opacity="0" result="BackgroundImageFix"/>
<feBlend mode="normal" in="SourceGraphic" in2="BackgroundImageFix" result="shape"/>
<feGaussianBlur stdDeviation="58.017" result="effect1_foregroundBlur_2002_4115"/>
</filter>
<filter id="filter1_dd_2002_4115" x="32.9165" y="20.4252" width="399.458" height="399.458" filterUnits="userSpaceOnUse" color-interpolation-filters="sRGB">
<feFlood flood-opacity="0" result="BackgroundImageFix"/>
<feColorMatrix in="SourceAlpha" type="matrix" values="0 0 0 0 0 0 0 0 0 0 0 0 0 0 0 0 0 0 127 0" result="hardAlpha"/>
<feOffset dy="4.44022"/>
<feGaussianBlur stdDeviation="2.22011"/>
<feComposite in2="hardAlpha" operator="out"/>
<feColorMatrix type="matrix" values="0 0 0 0 0 0 0 0 0 0 0 0 0 0 0 0 0 0 0.25 0"/>
<feBlend mode="normal" in2="BackgroundImageFix" result="effect1_dropShadow_2002_4115"/>
<feColorMatrix in="SourceAlpha" type="matrix" values="0 0 0 0 0 0 0 0 0 0 0 0 0 0 0 0 0 0 127 0" result="hardAlpha"/>
<feOffset dy="3.50866"/>
<feGaussianBlur stdDeviation="67.5417"/>
<feComposite in2="hardAlpha" operator="out"/>
<feColorMatrix type="matrix" values="0 0 0 0 0 0 0 0 0 0 0 0 0 0 0 0 0 0 1 0"/>
<feBlend mode="normal" in2="effect1_dropShadow_2002_4115" result="effect2_dropShadow_2002_4115"/>
<feBlend mode="normal" in="SourceGraphic" in2="effect2_dropShadow_2002_4115" result="shape"/>
</filter>
<filter id="filter2_d_2002_4115" x="250.601" y="126.381" width="28.4606" height="28.4604" filterUnits="userSpaceOnUse" color-interpolation-filters="sRGB">
<feFlood flood-opacity="0" result="BackgroundImageFix"/>
<feColorMatrix in="SourceAlpha" type="matrix" values="0 0 0 0 0 0 0 0 0 0 0 0 0 0 0 0 0 0 127 0" result="hardAlpha"/>
<feOffset/>
<feGaussianBlur stdDeviation="5.33633"/>
<feComposite in2="hardAlpha" operator="out"/>
<feColorMatrix type="matrix" values="0 0 0 0 1 0 0 0 0 1 0 0 0 0 1 0 0 0 0.38 0"/>
<feBlend mode="normal" in2="BackgroundImageFix" result="effect1_dropShadow_2002_4115"/>
<feBlend mode="normal" in="SourceGraphic" in2="effect1_dropShadow_2002_4115" result="shape"/>
</filter>
<filter id="filter3_d_2002_4115" x="261.273" y="105.035" width="28.4606" height="28.4604" filterUnits="userSpaceOnUse" color-interpolation-filters="sRGB">
<feFlood flood-opacity="0" result="BackgroundImageFix"/>
<feColorMatrix in="SourceAlpha" type="matrix" values="0 0 0 0 0 0 0 0 0 0 0 0 0 0 0 0 0 0 127 0" result="hardAlpha"/>
<feOffset/>
<feGaussianBlur stdDeviation="5.33633"/>
<feComposite in2="hardAlpha" operator="out"/>
<feColorMatrix type="matrix" values="0 0 0 0 1 0 0 0 0 1 0 0 0 0 1 0 0 0 0.38 0"/>
<feBlend mode="normal" in2="BackgroundImageFix" result="effect1_dropShadow_2002_4115"/>
<feBlend mode="normal" in="SourceGraphic" in2="effect1_dropShadow_2002_4115" result="shape"/>
</filter>
<filter id="filter4_d_2002_4115" x="289.726" y="58.7883" width="32.018" height="32.018" filterUnits="userSpaceOnUse" color-interpolation-filters="sRGB">
<feFlood flood-opacity="0" result="BackgroundImageFix"/>
<feColorMatrix in="SourceAlpha" type="matrix" values="0 0 0 0 0 0 0 0 0 0 0 0 0 0 0 0 0 0 127 0" result="hardAlpha"/>
<feOffset/>
<feGaussianBlur stdDeviation="5.33633"/>
<feComposite in2="hardAlpha" operator="out"/>
<feColorMatrix type="matrix" values="0 0 0 0 1 0 0 0 0 1 0 0 0 0 1 0 0 0 0.38 0"/>
<feBlend mode="normal" in2="BackgroundImageFix" result="effect1_dropShadow_2002_4115"/>
<feBlend mode="normal" in="SourceGraphic" in2="effect1_dropShadow_2002_4115" result="shape"/>
</filter>
<filter id="filter5_d_2002_4115" x="179.445" y="30.3273" width="32.0179" height="32.018" filterUnits="userSpaceOnUse" color-interpolation-filters="sRGB">
<feFlood flood-opacity="0" result="BackgroundImageFix"/>
<feColorMatrix in="SourceAlpha" type="matrix" values="0 0 0 0 0 0 0 0 0 0 0 0 0 0 0 0 0 0 127 0" result="hardAlpha"/>
<feOffset/>
<feGaussianBlur stdDeviation="5.33633"/>
<feComposite in2="hardAlpha" operator="out"/>
<feColorMatrix type="matrix" values="0 0 0 0 1 0 0 0 0 1 0 0 0 0 1 0 0 0 0.38 0"/>
<feBlend mode="normal" in2="BackgroundImageFix" result="effect1_dropShadow_2002_4115"/>
<feBlend mode="normal" in="SourceGraphic" in2="effect1_dropShadow_2002_4115" result="shape"/>
</filter>
<filter id="filter6_d_2002_4115" x="172.327" y="94.3628" width="35.5755" height="35.5755" filterUnits="userSpaceOnUse" color-interpolation-filters="sRGB">
<feFlood flood-opacity="0" result="BackgroundImageFix"/>
<feColorMatrix in="SourceAlpha" type="matrix" values="0 0 0 0 0 0 0 0 0 0 0 0 0 0 0 0 0 0 127 0" result="hardAlpha"/>
<feOffset/>
<feGaussianBlur stdDeviation="5.33633"/>
<feComposite in2="hardAlpha" operator="out"/>
<feColorMatrix type="matrix" values="0 0 0 0 1 0 0 0 0 1 0 0 0 0 1 0 0 0 0.38 0"/>
<feBlend mode="normal" in2="BackgroundImageFix" result="effect1_dropShadow_2002_4115"/>
<feBlend mode="normal" in="SourceGraphic" in2="effect1_dropShadow_2002_4115" result="shape"/>
</filter>
<filter id="filter7_d_2002_4115" x="207.906" y="126.381" width="28.4606" height="28.4604" filterUnits="userSpaceOnUse" color-interpolation-filters="sRGB">
<feFlood flood-opacity="0" result="BackgroundImageFix"/>
<feColorMatrix in="SourceAlpha" type="matrix" values="0 0 0 0 0 0 0 0 0 0 0 0 0 0 0 0 0 0 127 0" result="hardAlpha"/>
<feOffset/>
<feGaussianBlur stdDeviation="5.33633"/>
<feComposite in2="hardAlpha" operator="out"/>
<feColorMatrix type="matrix" values="0 0 0 0 1 0 0 0 0 1 0 0 0 0 1 0 0 0 0.38 0"/>
<feBlend mode="normal" in2="BackgroundImageFix" result="effect1_dropShadow_2002_4115"/>
<feBlend mode="normal" in="SourceGraphic" in2="effect1_dropShadow_2002_4115" result="shape"/>
</filter>
<filter id="filter8_d_2002_4115" x="207.906" y="94.3624" width="28.4606" height="28.4604" filterUnits="userSpaceOnUse" color-interpolation-filters="sRGB">
<feFlood flood-opacity="0" result="BackgroundImageFix"/>
<feColorMatrix in="SourceAlpha" type="matrix" values="0 0 0 0 0 0 0 0 0 0 0 0 0 0 0 0 0 0 127 0" result="hardAlpha"/>
<feOffset/>
<feGaussianBlur stdDeviation="5.33633"/>
<feComposite in2="hardAlpha" operator="out"/>
<feColorMatrix type="matrix" values="0 0 0 0 1 0 0 0 0 1 0 0 0 0 1 0 0 0 0.38 0"/>
<feBlend mode="normal" in2="BackgroundImageFix" result="effect1_dropShadow_2002_4115"/>
<feBlend mode="normal" in="SourceGraphic" in2="effect1_dropShadow_2002_4115" result="shape"/>
</filter>
<radialGradient id="paint0_radial_2002_4115" cx="0" cy="0" r="1" gradientUnits="userSpaceOnUse" gradientTransform="translate(264.831 140.611) rotate(90) scale(3.55755 3.55756)">
<stop stop-color="#78C7FF"/>
<stop offset="1" stop-color="#2483D6"/>
</radialGradient>
<radialGradient id="paint1_radial_2002_4115" cx="0" cy="0" r="1" gradientUnits="userSpaceOnUse" gradientTransform="translate(275.503 119.265) rotate(90) scale(3.55755 3.55756)">
<stop stop-color="#78C7FF"/>
<stop offset="1" stop-color="#2483D6"/>
</radialGradient>
<radialGradient id="paint2_radial_2002_4115" cx="0" cy="0" r="1" gradientUnits="userSpaceOnUse" gradientTransform="translate(305.735 74.7973) rotate(90) scale(5.33632 5.33634)">
<stop stop-color="#78C7FF"/>
<stop offset="1" stop-color="#2483D6"/>
</radialGradient>
<radialGradient id="paint3_radial_2002_4115" cx="0" cy="0" r="1" gradientUnits="userSpaceOnUse" gradientTransform="translate(195.454 46.3363) rotate(90) scale(5.33632 5.33634)">
<stop stop-color="#78C7FF"/>
<stop offset="1" stop-color="#2483D6"/>
</radialGradient>
<radialGradient id="paint4_radial_2002_4115" cx="0" cy="0" r="1" gradientUnits="userSpaceOnUse" gradientTransform="translate(190.115 112.151) rotate(90) scale(7.11509 7.11512)">
<stop stop-color="#78C7FF"/>
<stop offset="1" stop-color="#2483D6"/>
</radialGradient>
<radialGradient id="paint5_radial_2002_4115" cx="0" cy="0" r="1" gradientUnits="userSpaceOnUse" gradientTransform="translate(222.136 140.611) rotate(90) scale(3.55755 3.55756)">
<stop stop-color="#78C7FF"/>
<stop offset="1" stop-color="#2483D6"/>
</radialGradient>
<radialGradient id="paint6_radial_2002_4115" cx="0" cy="0" r="1" gradientUnits="userSpaceOnUse" gradientTransform="translate(222.136 108.593) rotate(90) scale(3.55755 3.55756)">
<stop stop-color="#78C7FF"/>
<stop offset="1" stop-color="#2483D6"/>
</radialGradient>
</defs>
</svg>
